<svg xmlns="http://www.w3.org/2000/svg" xmlns:xlink="http://www.w3.org/1999/xlink" width="77" height="24" viewBox="0 0 77 24">
  <defs>
    <filter id="bg" x="0" y="0" width="77" height="24" filterUnits="userSpaceOnUse">
      <feOffset dy="1" input="SourceAlpha"/>
      <feGaussianBlur stdDeviation="1" result="blur"/>
      <feFlood flood-opacity="0.161"/>
      <feComposite operator="in" in2="blur"/>
      <feComposite in="SourceGraphic"/>
    </filter>
  </defs>
  <g id="Cal_Label" data-name="Cal Label" transform="translate(3 2)">
    <g transform="matrix(1, 0, 0, 1, -3, -2)" filter="url(#bg)">
      <rect id="bg-2" data-name="bg" width="71" height="18" rx="3" transform="translate(3 2)" fill="#e8f8f7"/>
    </g>
    <path id="Path_24" data-name="Path 24" d="M9.477,3.94a1.23,1.23,0,1,0-1.23-1.23A1.233,1.233,0,0,0,9.477,3.94ZM7.528,11.319l.35-1.537,1.291,1.23v3.075a.615.615,0,1,0,1.23,0V10.618a1.223,1.223,0,0,0-.381-.892l-.91-.867.369-1.845A4.5,4.5,0,0,0,12.158,8.5a.615.615,0,0,0,.178-1.218,2.991,2.991,0,0,1-2.121-1.433L9.6,4.862a1.268,1.268,0,0,0-1.045-.615c-.184,0-.307.061-.492.061L5.616,5.342a1.236,1.236,0,0,0-.75,1.138V7.937a.615.615,0,0,0,1.23,0V6.461L7.2,6.03l-.984,4.981-2.41-.492a.616.616,0,0,0-.726.48v.025a.616.616,0,0,0,.48.726l2.527.5A1.23,1.23,0,0,0,7.528,11.319Z" transform="translate(1.966 0.753)" fill="#0fa59a"/>
    <text id="_200_Kcal" data-name="200 Kcal" transform="translate(21 13)" fill="#0fa59a" font-size="12" font-family="Helvetica"><tspan x="0" y="0">200 Kcal</tspan></text>
  </g>
</svg>
