<svg id="Not_registered" data-name="Not registered" xmlns="http://www.w3.org/2000/svg" xmlns:xlink="http://www.w3.org/1999/xlink" width="56" height="56" viewBox="0 0 56 56">
  <defs>
    <linearGradient id="linear-gradient" x1="0.5" x2="0.5" y2="1" gradientUnits="objectBoundingBox">
      <stop offset="0" stop-color="#53baff"/>
      <stop offset="1" stop-color="#0c75ec"/>
    </linearGradient>
  </defs>
  <path id="Path_332" data-name="Path 332" d="M10,0H46A10,10,0,0,1,56,10V46A10,10,0,0,1,46,56H10A10,10,0,0,1,0,46V10A10,10,0,0,1,10,0Z" fill="url(#linear-gradient)"/>
  <g id="noun_User_4027108" transform="translate(13 10.769)">
    <ellipse id="Ellipse_41" data-name="Ellipse 41" cx="8.963" cy="8.963" rx="8.963" ry="8.963" transform="translate(6)" fill="#fff"/>
    <path id="Path_327" data-name="Path 327" d="M17.955,70.393a14.938,14.938,0,0,1,29.875,0Z" transform="translate(-17.955 -35.432)" fill="#fff"/>
  </g>
  <path id="Icon_awesome-question" data-name="Icon awesome-question" d="M6.112,0A4.735,4.735,0,0,0,1.905,2.225a.587.587,0,0,0,.127.8l1.054.8a.587.587,0,0,0,.813-.1A2.371,2.371,0,0,1,5.921,2.518C6.673,2.518,7.6,3,7.6,3.731c0,.551-.455.834-1.2,1.25-.866.485-2.011,1.089-2.011,2.6v.239a.587.587,0,0,0,.587.587H6.752a.587.587,0,0,0,.587-.587V7.68c0-1.047,3.062-1.091,3.062-3.926C10.4,1.619,8.186,0,6.112,0ZM5.867,9.127A1.693,1.693,0,1,0,7.56,10.82,1.695,1.695,0,0,0,5.867,9.127Z" transform="translate(22.2 14.25)" fill="#3098f5"/>
</svg>
